2.8Hzlow3min_grf.mot
version=1
nRows=22
nColumns 19
inDegrees=yes
endheader
time	1_ground_force_vx	1_ground_force_vy	1_ground_force_vz	1_ground_force_px	1_ground_force_py	1_ground_force_pz	1_ground_torque_x	1_ground_torque_y	1_ground_torque_z	2_ground_force_vx	2_ground_force_vy	2_ground_force_vz	2_ground_force_px	2_ground_force_py	2_ground_force_pz	2_ground_torque_x	2_ground_torque_y	2_ground_torque_z
            3.751500	          -23.062940	         1269.881999	         -142.799835	           -0.248568	            0.006174	           -0.394583	           -0.097462	            5.366433	           -0.603462	          -43.986776	         1166.418791	          112.209213	           -0.235464	            0.005644	           -0.700618	            0.270152	           -7.163754	           -0.689151
            3.752000	          -23.795779	         1263.213224	         -143.055889	           -0.248281	            0.006174	           -0.394482	           -0.098295	            5.218029	           -0.590929	          -44.720074	         1161.993862	          112.991548	           -0.235100	            0.005645	           -0.700664	            0.266510	           -6.924910	           -0.673374
            3.752500	          -24.253627	         1256.904606	         -143.311112	           -0.247955	            0.006173	           -0.394368	           -0.096319	            4.991551	           -0.569132	          -45.223149	         1158.674592	          113.683854	           -0.234777	            0.005647	           -0.700838	            0.262527	           -6.726267	           -0.659951
            3.753000	          -24.436320	         1251.317077	         -143.472159	           -0.247571	            0.006172	           -0.394154	           -0.094737	            4.851205	           -0.556224	          -46.236378	         1153.881584	          114.089569	           -0.234541	            0.005648	           -0.700923	            0.260157	           -6.492518	           -0.641945
            3.753500	          -25.443241	         1244.285840	         -143.362261	           -0.247218	            0.006172	           -0.394047	           -0.095269	            4.659068	           -0.536801	          -46.501406	         1149.459944	          114.355488	           -0.234271	            0.005650	           -0.700973	            0.253174	           -6.258153	           -0.622600
            3.754000	          -25.671207	         1237.435761	         -143.391065	           -0.246879	            0.006172	           -0.394013	           -0.095542	            4.605438	           -0.533667	          -47.233499	         1144.667617	          114.854925	           -0.233945	            0.005651	           -0.701060	            0.250501	           -6.070698	           -0.609128
            3.754500	          -26.540551	         1232.026504	         -143.136948	           -0.246560	            0.006171	           -0.393822	           -0.094811	            4.401185	           -0.511330	          -47.736780	         1141.350264	          115.077965	           -0.233659	            0.005652	           -0.701169	            0.249933	           -5.975710	           -0.602508
            3.755000	          -26.905754	         1226.076727	         -142.978108	           -0.246320	            0.006171	           -0.393648	           -0.094936	            4.326148	           -0.504491	          -48.332291	         1137.662999	          115.628220	           -0.233404	            0.005654	           -0.701302	            0.249117	           -5.863804	           -0.595977
            3.755500	          -26.858759	         1218.506154	         -143.102420	           -0.246052	            0.006171	           -0.393648	           -0.092815	            4.210736	           -0.494512	          -48.831564	         1133.240757	          115.894239	           -0.233076	            0.005655	           -0.701305	            0.242879	           -5.636532	           -0.576437
            3.756000	          -26.994565	         1212.195632	         -142.899827	           -0.245762	            0.006170	           -0.393540	           -0.090741	            4.074755	           -0.480353	          -49.233982	         1127.899306	          115.781508	           -0.232895	            0.005656	           -0.701365	            0.237068	           -5.430971	           -0.557502
            3.756500	          -26.947622	         1206.787535	         -142.877292	           -0.245498	            0.006170	           -0.393396	           -0.088473	            3.962064	           -0.469087	          -49.637667	         1122.925513	          115.810866	           -0.232607	            0.005657	           -0.701351	            0.233645	           -5.285632	           -0.545124
            3.757000	          -27.129028	         1199.756111	         -142.631839	           -0.245141	            0.006169	           -0.393259	           -0.088249	            3.902714	           -0.463970	          -49.669204	         1118.689635	          115.842709	           -0.232323	            0.005658	           -0.701428	            0.224762	           -5.062280	           -0.524210
            3.757500	          -27.126819	         1193.264655	         -142.246952	           -0.244916	            0.006169	           -0.393208	           -0.086205	            3.792034	           -0.452042	          -49.845203	         1115.557791	          116.066253	           -0.232124	            0.005660	           -0.701648	            0.223273	           -4.996956	           -0.519899
            3.758000	          -27.216478	         1188.395529	         -141.809042	           -0.244524	            0.006168	           -0.393048	           -0.086485	            3.776309	           -0.450620	          -50.107012	         1110.216345	          116.094253	           -0.231823	            0.005661	           -0.701589	            0.221781	           -4.913971	           -0.513849
            3.758500	          -27.534401	         1180.821495	         -141.198720	           -0.244337	            0.006168	           -0.393002	           -0.084091	            3.606291	           -0.431228	          -50.463202	         1105.058808	          116.076015	           -0.231507	            0.005662	           -0.701554	            0.218291	           -4.780202	           -0.502115
            3.759000	          -27.440116	         1174.689863	         -140.629106	           -0.244100	            0.006168	           -0.392867	           -0.081284	            3.479700	           -0.416576	          -50.356164	         1101.375754	          116.156690	           -0.231286	            0.005663	           -0.701711	            0.216154	           -4.727657	           -0.498603
            3.759500	          -27.071261	         1168.739489	         -140.242839	           -0.243768	            0.006167	           -0.392829	           -0.077576	            3.349160	           -0.401882	          -50.855027	         1096.771197	          115.858914	           -0.231014	            0.005664	           -0.701747	            0.206854	           -4.461145	           -0.471259
            3.760000	          -26.932340	         1162.970424	         -140.130344	           -0.243548	            0.006167	           -0.392618	           -0.075217	            3.247976	           -0.391360	          -50.601604	         1091.432616	          115.605111	           -0.230912	            0.005665	           -0.701760	            0.202084	           -4.358787	           -0.461685
            3.760500	          -26.654390	         1156.478086	         -139.470995	           -0.243366	            0.006166	           -0.392505	           -0.075033	            3.255524	           -0.392615	          -50.774403	         1087.380889	          115.543816	           -0.230610	            0.005666	           -0.701913	            0.195843	           -4.194151	           -0.445666
            3.761000	          -26.559922	         1148.724107	         -138.954205	           -0.243137	            0.006167	           -0.392644	           -0.074802	            3.235216	           -0.391345	          -50.427304	         1082.042570	          115.243052	           -0.230326	            0.005667	           -0.701872	            0.193299	           -4.147704	           -0.441752
            3.761500	          -26.556818	         1141.690752	         -138.250655	           -0.242799	            0.006167	           -0.392674	           -0.072224	            3.104927	           -0.375985	          -50.039337	         1078.362114	          114.948183	           -0.230181	            0.005668	           -0.701911	            0.191924	           -4.136013	           -0.440879
            3.762000	          -26.417047	         1136.280707	         -137.769766	           -0.242544	            0.006166	           -0.392451	           -0.071162	            3.060924	           -0.371126	          -50.164700	         1074.126902	          114.698482	           -0.230036	            0.005669	           -0.702092	            0.191079	           -4.091393	           -0.436891
